<svg width="76" height="17" viewBox="0 0 76 17" fill="none" xmlns="http://www.w3.org/2000/svg">
<mask id="mask0_1_1405" style="mask-type:luminance" maskUnits="userSpaceOnUse" x="20" y="3" width="56" height="10">
<path d="M20.1434 3.84692H76V12.1024H20.1434V3.84692Z" fill="white"/>
</mask>
<g mask="url(#mask0_1_1405)">
<path d="M20.1434 7.97324C20.1434 5.5595 21.9072 3.84692 24.3075 3.84692C25.7131 3.84692 26.827 4.38072 27.5695 5.34277L26.201 6.6271C25.995 6.34125 25.7249 6.10721 25.4121 5.9436C25.1048 5.78308 24.7629 5.69909 24.4159 5.69877C23.1722 5.69877 22.3076 6.60503 22.3076 7.96482C22.3076 9.3246 23.1722 10.2337 24.4291 10.2337C24.7748 10.2337 25.116 10.1498 25.4254 9.98884C25.7382 9.82509 26.0083 9.59093 26.2143 9.30494L27.5695 10.6061C26.8323 11.5682 25.7127 12.1024 24.3127 12.1024C21.9072 12.1024 20.1434 10.3894 20.1434 7.97324ZM34.1797 10.4002H30.9786L30.3846 11.9434H28.1992L31.5489 4.00546H33.6706L37.0043 11.9442H34.7765L34.1797 10.4002ZM33.5538 8.74585L32.5803 6.20448L31.6071 8.74585H33.5538ZM38.7079 5.79309H36.3713V4.00506H43.153V5.79309H40.8296V11.9434H38.7079V5.79309ZM48.6467 10.4002H45.4456L44.8517 11.9434H42.6661L46.0079 4.00506H48.1296L51.4823 11.9438H49.2544L48.6467 10.4002ZM48.0211 8.74585L47.045 6.20448L46.0718 8.74585H48.0211ZM52.5815 4.00546H54.7245V10.1642H58.3342V11.9434H52.5792L52.5815 4.00546ZM59.0312 7.97324C59.0312 5.59322 60.8162 3.84692 63.2403 3.84692C65.6644 3.84692 67.4465 5.59281 67.4465 7.97284C67.4465 10.3529 65.6615 12.1024 63.2403 12.1024C60.8188 12.1024 59.0312 10.3561 59.0312 7.97324ZM65.2849 7.97324C65.2849 6.60222 64.3862 5.7072 63.2403 5.7072C62.0944 5.7072 61.1954 6.60222 61.1954 7.97324C61.1954 9.34387 62.0944 10.2421 63.2403 10.2421C64.3862 10.2421 65.2849 9.34708 65.2849 7.97324ZM73.9342 7.80347H75.8383V11.093C74.91 11.7534 73.7966 12.1065 72.6556 12.1024C70.2424 12.1024 68.4813 10.3894 68.4813 7.97324C68.4813 5.55709 70.2344 3.84692 72.6904 3.84692C74.1065 3.84692 75.255 4.35865 76.0003 5.29822L74.6372 6.59138C74.4153 6.31307 74.1336 6.08797 73.8127 5.93276C73.497 5.7803 73.15 5.7031 72.7992 5.7072C71.4994 5.7072 70.6349 6.60222 70.6349 7.97324C70.6349 9.34387 71.4994 10.2421 72.7779 10.2421C73.1785 10.2458 73.5742 10.1563 73.9342 9.98082V7.80347Z" fill="#00501E"/>
</g>
<path d="M11.9072 0H4.20756C3.09164 0 2.02144 0.44163 1.23237 1.22773C0.443296 2.01384 1.92925e-08 3.08002 1.92925e-08 4.19174V11.8624C-5.28952e-05 12.4129 0.108743 12.958 0.320174 13.4666C0.531605 13.9752 0.841529 14.4373 1.23225 14.8265C1.62297 15.2158 2.08682 15.5245 2.59733 15.7352C3.10784 15.9458 3.655 16.0542 4.20756 16.0542H11.9072C12.4597 16.0542 13.0069 15.9458 13.5174 15.7352C14.0279 15.5245 14.4918 15.2158 14.8825 14.8265C15.2732 14.4373 15.5831 13.9752 15.7946 13.4666C16.006 12.958 16.1148 12.4129 16.1147 11.8624V4.19174C16.1147 3.08002 15.6714 2.01384 14.8824 1.22773C14.0933 0.44163 13.0231 0 11.9072 0ZM13.7604 11.0412H2.35557V9.13161H5.7437L3.07389 6.47183L4.42954 5.12168L7.09894 7.78145V4.04765H9.01539V7.78145L11.6864 5.12168L13.0417 6.47183L10.3714 9.13161H13.7612V11.0416L13.7604 11.0412Z" fill="#00501E"/>
</svg>
