<svg width="32" height="32" viewBox="0 0 32 32" fill="none" xmlns="http://www.w3.org/2000/svg">
<circle cx="16" cy="16" r="16" fill="#F7931A"/>
<path d="M19.3874 13.7165C18.8826 15.6943 15.8326 14.6707 14.8437 14.4182L15.7371 10.9183C16.7261 11.1708 19.9141 11.6512 19.3874 13.7165ZM18.8118 19.3668C18.258 21.5425 14.5966 20.3436 13.407 20.0405L14.4042 16.1886C15.5894 16.493 19.4035 17.1014 18.8231 19.373L18.8118 19.3668ZM22.8654 13.7734C23.1976 11.6462 21.5827 10.4962 19.3716 9.7168L20.1068 6.83754L18.3525 6.38837L17.6358 9.19309C17.1772 9.07538 16.7039 8.96437 16.2334 8.85491L16.9376 6.03238L15.1893 5.57909L14.4556 8.45551C14.0725 8.368 13.6982 8.2779 13.3356 8.18677L10.9191 7.56775L10.4411 9.44238C10.4411 9.44238 11.7464 9.74959 11.711 9.76712C12.2166 9.82995 12.5786 10.2863 12.5248 10.7929L11.7002 14.0652C11.7619 14.0809 11.8226 14.1005 11.8818 14.1238L11.6969 14.0781L10.5141 18.6682C10.4019 19.0052 10.0388 19.1885 9.70102 19.0787C9.72656 19.0926 8.4283 18.7524 8.4283 18.7524L7.54509 20.7557L9.82691 21.338L11.0826 21.655L10.342 24.5645L12.0934 25.0121L12.8153 22.1439C13.2778 22.2748 13.7449 22.3972 14.2108 22.5151L13.4773 25.3843L15.2288 25.832L15.9751 22.9256C18.97 23.5104 21.2168 23.2932 22.1785 20.5927C22.9508 18.4148 22.1642 17.1572 20.5985 16.3286C21.7474 16.0719 22.6189 15.3251 22.8541 13.7672L22.8654 13.7734Z" fill="white"/>
</svg>
