<svg width="32" height="32" viewBox="0 0 32 32" fill="none" xmlns="http://www.w3.org/2000/svg">
<rect width="32" height="32" fill="#1E1E1E"/>
<g clip-path="url(#clip0_0_1)">
<rect width="1440" height="972" transform="translate(-536 -484)" fill="#E5FFBE"/>
<rect x="-536" y="-484" width="1440" height="720" fill="#00501E"/>
<rect x="-16" y="-25" width="400" height="77" rx="15" fill="#006B28"/>
<text fill="#E5FFBE" xml:space="preserve" style="white-space: pre" font-family="Suisse Int&#39;l" font-size="12" font-weight="bold" letter-spacing="0em"><tspan x="0" y="3.05">Fees</tspan></text>
<text fill="white" xml:space="preserve" style="white-space: pre" font-family="Suisse Int&#39;l" font-size="16" font-weight="bold" letter-spacing="0em"><tspan x="0" y="30.9">--</tspan></text>
<rect x="-536" y="-484" width="1440" height="1183" fill="#E5FFBE" fill-opacity="0.7"/>
<rect x="-24" y="-71" width="416" height="199" rx="15" fill="#00501E"/>
<rect x="-16" y="-16" width="400" height="64" rx="15" fill="#006B28"/>
<rect width="32" height="32" rx="8" fill="#5CFFD5"/>
<path d="M27.5 18.1771V22H4.5V18.1771H11.334L5.94961 12.8537L8.68364 10.1502L14.0679 15.4745V8H17.933V15.4745L23.3173 10.1502L26.0503 12.8537L20.666 18.1771H27.5Z" fill="black"/>
</g>
<defs>
<clipPath id="clip0_0_1">
<rect width="1440" height="972" fill="white" transform="translate(-536 -484)"/>
</clipPath>
</defs>
</svg>
