<svg width="157" height="33" viewBox="0 0 157 33" fill="none" xmlns="http://www.w3.org/2000/svg">
<circle cx="16.5" cy="16.5" r="16.5" fill="#ABFE2C"/>
<path d="M19.3525 13.287C19.3269 15.3918 16.0215 15.1065 14.969 15.0936L15.0146 11.369C16.0671 11.3818 19.3789 11.0892 19.3525 13.287ZM20.1477 19.0899C20.1209 21.4049 16.1603 21.0924 14.8943 21.0775L14.9584 16.9748C16.2202 16.992 20.1907 16.6757 20.1606 19.0933L20.1477 19.0899ZM22.8522 12.4995C22.6687 10.2868 20.7708 9.52641 18.3655 9.28215L18.4032 6.21786L16.5358 6.19368L16.4986 9.17875C16.0104 9.17214 15.509 9.17582 15.0109 9.18036L15.0314 6.18046L13.169 6.1507L13.1321 9.21177C12.7269 9.21707 12.3299 9.21766 11.9443 9.2144L9.37206 9.18077L9.34825 11.1757C9.34825 11.1757 10.731 11.1666 10.6999 11.1928C11.2218 11.133 11.6955 11.5025 11.7645 12.0232L11.7327 15.5032C11.7984 15.5039 11.8639 15.5088 11.929 15.5178L11.7325 15.5169L11.6617 20.4046C11.6311 20.7696 11.3117 21.0415 10.9464 21.0134C10.9754 21.0212 9.59162 20.9955 9.59162 20.9955L9.19287 23.2177L11.6213 23.2473L12.9568 23.2601L12.9209 26.356L14.7851 26.3793L14.812 23.3294C15.3074 23.3482 15.8053 23.3574 16.3008 23.3625L16.2625 26.4163L18.1266 26.4396L18.1689 23.3455C21.3124 23.2044 23.5116 22.4411 23.8197 19.501C24.0649 17.1306 22.9711 16.0612 21.2007 15.611C22.2899 15.0747 22.982 14.1146 22.8394 12.496L22.8522 12.4995Z" fill="#00501E"/>
<path d="M47.46 24L44.26 14.22H46.2L47.82 19.3C48.04 20.02 48.24 20.76 48.42 21.62C48.58 20.76 48.84 19.94 49.06 19.3L50.7 14.22H52.62L54.24 19.3C54.4 19.78 54.72 20.92 54.88 21.62C55.04 20.84 55.22 20.16 55.5 19.3L57.14 14.22H59.1L55.76 24H53.98L52.28 18.76C51.96 17.78 51.76 17.02 51.66 16.48C51.56 16.96 51.38 17.6 51.02 18.78L49.32 24H47.46ZM62.4116 24H60.7116V9.28H62.5916V15.9C63.2316 14.62 64.5516 13.94 66.1516 13.94C68.9516 13.94 70.6316 16.14 70.6316 19.16C70.6316 22.12 68.8716 24.24 66.0316 24.24C64.4916 24.24 63.1916 23.56 62.5516 22.22L62.4116 24ZM62.6116 19.08C62.6116 21.12 63.7716 22.54 65.6916 22.54C67.6116 22.54 68.7516 21.1 68.7516 19.08C68.7516 17.08 67.6116 15.64 65.6916 15.64C63.7716 15.64 62.6116 17.08 62.6116 19.08ZM75.3661 24H73.4861V15.8H71.5661V14.22H73.4861V11.16H75.3661V14.22H77.2861V15.8H75.3661V24ZM78.2356 19.12C78.2356 16.06 80.1756 13.94 83.0356 13.94C85.4956 13.94 87.2156 15.34 87.5556 17.52H85.6756C85.3556 16.28 84.3556 15.62 83.0956 15.62C81.3156 15.62 80.0956 16.98 80.0956 19.1C80.0956 21.2 81.2356 22.56 83.0156 22.56C84.3556 22.56 85.3556 21.86 85.6956 20.7H87.5756C87.1956 22.82 85.3756 24.24 83.0156 24.24C80.1356 24.24 78.2356 22.2 78.2356 19.12ZM90.5686 24.24C89.7886 24.24 89.1286 23.6 89.1286 22.84C89.1286 22.06 89.7886 21.42 90.5686 21.42C91.3286 21.42 91.9886 22.06 91.9886 22.84C91.9886 23.6 91.3286 24.24 90.5686 24.24ZM93.6853 18.86C93.6853 16.1 95.4653 13.94 98.3053 13.94C99.8853 13.94 101.105 14.66 101.725 15.88L101.865 14.22H103.545V23.6C103.545 26.68 101.645 28.64 98.6453 28.64C95.9853 28.64 94.1653 27.14 93.8053 24.66H95.6853C95.9253 26.1 97.0053 26.94 98.6453 26.94C100.485 26.94 101.685 25.74 101.685 23.88V21.92C101.045 23.06 99.7653 23.74 98.2253 23.74C95.4453 23.74 93.6853 21.6 93.6853 18.86ZM95.5653 18.82C95.5653 20.66 96.7053 22.1 98.5453 22.1C100.445 22.1 101.605 20.74 101.605 18.82C101.605 16.94 100.485 15.58 98.5653 15.58C96.6853 15.58 95.5653 17.02 95.5653 18.82ZM109.118 24.24C107.018 24.24 105.778 23.06 105.778 21.28C105.778 19.48 107.118 18.36 109.418 18.18L112.498 17.94V17.66C112.498 16.02 111.518 15.44 110.198 15.44C108.618 15.44 107.718 16.14 107.718 17.32H106.078C106.078 15.28 107.758 13.94 110.278 13.94C112.698 13.94 114.338 15.22 114.338 17.86V24H112.738L112.538 22.42C112.038 23.54 110.698 24.24 109.118 24.24ZM109.658 22.78C111.438 22.78 112.518 21.62 112.518 19.78V19.26L110.018 19.46C108.358 19.62 107.678 20.26 107.678 21.22C107.678 22.26 108.438 22.78 109.658 22.78ZM122.542 14.14V15.86H121.702C119.922 15.86 118.822 16.94 118.822 18.82V24H116.942V14.24H118.702L118.822 15.72C119.222 14.7 120.202 14.02 121.542 14.02C121.882 14.02 122.162 14.06 122.542 14.14ZM127.874 24.24C125.034 24.24 123.314 22.12 123.314 19.14C123.314 16.14 125.054 13.94 127.954 13.94C129.454 13.94 130.714 14.6 131.374 15.8V9.28H133.234V24H131.554L131.394 22.22C130.754 23.56 129.434 24.24 127.874 24.24ZM128.254 22.54C130.174 22.54 131.354 21.12 131.354 19.08C131.354 17.08 130.174 15.64 128.254 15.64C126.334 15.64 125.214 17.08 125.214 19.08C125.214 21.1 126.334 22.54 128.254 22.54ZM140.166 24.24C137.286 24.24 135.306 22.16 135.306 19.12C135.306 16.06 137.246 13.94 140.086 13.94C142.866 13.94 144.686 15.86 144.686 18.76V19.46L137.126 19.48C137.266 21.54 138.346 22.68 140.206 22.68C141.666 22.68 142.626 22.08 142.946 20.96H144.706C144.226 23.06 142.586 24.24 140.166 24.24ZM140.086 15.52C138.446 15.52 137.406 16.5 137.166 18.22H142.806C142.806 16.6 141.746 15.52 140.086 15.52ZM148.666 24H146.786V14.22H148.486L148.686 15.72C149.306 14.6 150.546 13.94 151.926 13.94C154.506 13.94 155.686 15.52 155.686 18.02V24H153.806V18.44C153.806 16.46 152.886 15.66 151.446 15.66C149.686 15.66 148.666 16.92 148.666 18.82V24Z" fill="white"/>
</svg>
